<svg width="264" height="262" viewBox="0 0 264 262" fill="none" xmlns="http://www.w3.org/2000/svg">
<circle cx="58.2979" cy="58.2979" r="58.2979" transform="matrix(1 0 0 -1 75.1368 130.999)" stroke="url(#paint0_linear_19_169)" stroke-width="3"/>
<circle cx="133.435" cy="189.297" r="58.2979" stroke="url(#paint1_linear_19_169)" stroke-width="3"/>
<circle cx="58.2979" cy="58.2979" r="58.2979" transform="matrix(4.37114e-08 -1 -1 -4.37114e-08 133.435 189.298)" stroke="url(#paint2_linear_19_169)" stroke-width="3"/>
<circle cx="191.733" cy="131" r="58.2979" transform="rotate(-90 191.733 131)" stroke="url(#paint3_linear_19_169)" stroke-width="3"/>
<circle cx="92.2118" cy="89.7764" r="58.2979" transform="rotate(135 92.2118 89.7764)" stroke="url(#paint4_linear_19_169)" stroke-width="3"/>
<circle cx="174.657" cy="172.223" r="58.2979" transform="rotate(-45 174.657 172.223)" stroke="url(#paint5_linear_19_169)" stroke-width="3"/>
<circle cx="92.2118" cy="172.222" r="58.2979" transform="rotate(45 92.2118 172.222)" stroke="url(#paint6_linear_19_169)" stroke-width="3"/>
<circle cx="174.658" cy="89.7769" r="58.2979" transform="rotate(-135 174.658 89.7769)" stroke="url(#paint7_linear_19_169)" stroke-width="3"/>
<circle cx="110.976" cy="77.2011" r="58.2979" transform="rotate(157.342 110.976 77.2011)" stroke="url(#paint8_linear_19_169)" stroke-width="3"/>
<circle cx="155.893" cy="184.798" r="58.2979" transform="rotate(-22.6584 155.893 184.798)" stroke="url(#paint9_linear_19_169)" stroke-width="3"/>
<circle cx="58.2979" cy="58.2979" r="58.2979" transform="matrix(-0.5 -0.866025 -0.866025 0.5 159.273 174.797)" stroke="url(#paint10_linear_19_169)" stroke-width="3"/>
<circle cx="187.233" cy="108.541" r="58.2979" transform="rotate(-112.658 187.233 108.541)" stroke="url(#paint11_linear_19_169)" stroke-width="3"/>
<circle cx="79.5132" cy="108.839" r="58.2979" transform="rotate(112.342 79.5132 108.839)" stroke="url(#paint12_linear_19_169)" stroke-width="3"/>
<circle cx="187.356" cy="153.16" r="58.2979" transform="rotate(-67.6584 187.356 153.16)" stroke="url(#paint13_linear_19_169)" stroke-width="3"/>
<circle cx="111.274" cy="184.921" r="58.2979" transform="rotate(22.3416 111.274 184.921)" stroke="url(#paint14_linear_19_169)" stroke-width="3"/>
<circle cx="155.595" cy="77.0778" r="58.2979" transform="rotate(-157.658 155.595 77.0778)" stroke="url(#paint15_linear_19_169)" stroke-width="3"/>
<defs>
<linearGradient id="paint0_linear_19_169" x1="58.2979" y1="0" x2="58.2979" y2="116.596" gradientUnits="userSpaceOnUse">
<stop stop-color="#F2CE30"/>
<stop offset="0.761666" stop-color="#BD2BE2"/>
<stop offset="1" stop-color="#79115C"/>
</linearGradient>
<linearGradient id="paint1_linear_19_169" x1="133.435" y1="130.999" x2="133.435" y2="247.595" gradientUnits="userSpaceOnUse">
<stop stop-color="#F2CE30"/>
<stop offset="0.761666" stop-color="#BD2BE2"/>
<stop offset="1" stop-color="#79115C"/>
</linearGradient>
<linearGradient id="paint2_linear_19_169" x1="58.2979" y1="0" x2="58.2979" y2="116.596" gradientUnits="userSpaceOnUse">
<stop stop-color="#F2CE30"/>
<stop offset="0.761666" stop-color="#BD2BE2"/>
<stop offset="1" stop-color="#79115C"/>
</linearGradient>
<linearGradient id="paint3_linear_19_169" x1="191.733" y1="72.702" x2="191.733" y2="189.298" gradientUnits="userSpaceOnUse">
<stop stop-color="#F2CE30"/>
<stop offset="0.761666" stop-color="#BD2BE2"/>
<stop offset="1" stop-color="#79115C"/>
</linearGradient>
<linearGradient id="paint4_linear_19_169" x1="92.2118" y1="31.4784" x2="92.2118" y2="148.074" gradientUnits="userSpaceOnUse">
<stop stop-color="#F2CE30"/>
<stop offset="0.761666" stop-color="#BD2BE2"/>
<stop offset="1" stop-color="#79115C"/>
</linearGradient>
<linearGradient id="paint5_linear_19_169" x1="174.657" y1="113.925" x2="174.657" y2="230.521" gradientUnits="userSpaceOnUse">
<stop stop-color="#F2CE30"/>
<stop offset="0.761666" stop-color="#BD2BE2"/>
<stop offset="1" stop-color="#79115C"/>
</linearGradient>
<linearGradient id="paint6_linear_19_169" x1="92.2118" y1="113.924" x2="92.2118" y2="230.52" gradientUnits="userSpaceOnUse">
<stop stop-color="#F2CE30"/>
<stop offset="0.761666" stop-color="#BD2BE2"/>
<stop offset="1" stop-color="#79115C"/>
</linearGradient>
<linearGradient id="paint7_linear_19_169" x1="174.658" y1="31.479" x2="174.658" y2="148.075" gradientUnits="userSpaceOnUse">
<stop stop-color="#F2CE30"/>
<stop offset="0.761666" stop-color="#BD2BE2"/>
<stop offset="1" stop-color="#79115C"/>
</linearGradient>
<linearGradient id="paint8_linear_19_169" x1="110.976" y1="18.9032" x2="110.976" y2="135.499" gradientUnits="userSpaceOnUse">
<stop stop-color="#F2CE30"/>
<stop offset="0.761666" stop-color="#BD2BE2"/>
<stop offset="1" stop-color="#79115C"/>
</linearGradient>
<linearGradient id="paint9_linear_19_169" x1="155.893" y1="126.5" x2="155.893" y2="243.096" gradientUnits="userSpaceOnUse">
<stop stop-color="#F2CE30"/>
<stop offset="0.761666" stop-color="#BD2BE2"/>
<stop offset="1" stop-color="#79115C"/>
</linearGradient>
<linearGradient id="paint10_linear_19_169" x1="58.2979" y1="0" x2="58.2979" y2="116.596" gradientUnits="userSpaceOnUse">
<stop stop-color="#F2CE30"/>
<stop offset="0.761666" stop-color="#BD2BE2"/>
<stop offset="1" stop-color="#79115C"/>
</linearGradient>
<linearGradient id="paint11_linear_19_169" x1="187.233" y1="50.243" x2="187.233" y2="166.839" gradientUnits="userSpaceOnUse">
<stop stop-color="#F2CE30"/>
<stop offset="0.761666" stop-color="#BD2BE2"/>
<stop offset="1" stop-color="#79115C"/>
</linearGradient>
<linearGradient id="paint12_linear_19_169" x1="79.5132" y1="50.5413" x2="79.5132" y2="167.137" gradientUnits="userSpaceOnUse">
<stop stop-color="#F2CE30"/>
<stop offset="0.761666" stop-color="#BD2BE2"/>
<stop offset="1" stop-color="#79115C"/>
</linearGradient>
<linearGradient id="paint13_linear_19_169" x1="187.356" y1="94.8619" x2="187.356" y2="211.458" gradientUnits="userSpaceOnUse">
<stop stop-color="#F2CE30"/>
<stop offset="0.761666" stop-color="#BD2BE2"/>
<stop offset="1" stop-color="#79115C"/>
</linearGradient>
<linearGradient id="paint14_linear_19_169" x1="111.274" y1="126.623" x2="111.274" y2="243.219" gradientUnits="userSpaceOnUse">
<stop stop-color="#F2CE30"/>
<stop offset="0.761666" stop-color="#BD2BE2"/>
<stop offset="1" stop-color="#79115C"/>
</linearGradient>
<linearGradient id="paint15_linear_19_169" x1="155.595" y1="18.7798" x2="155.595" y2="135.376" gradientUnits="userSpaceOnUse">
<stop stop-color="#F2CE30"/>
<stop offset="0.761666" stop-color="#BD2BE2"/>
<stop offset="1" stop-color="#79115C"/>
</linearGradient>
</defs>
</svg>
